<svg xmlns="http://www.w3.org/2000/svg" width="640" height="280" viewBox="0 0 640 280" role="img" aria-label="Somar.IA — Automações inteligentes.">
  <defs>
    <linearGradient id="g" x1="0" y1="0" x2="1" y2="1">
      <stop offset="0" stop-color="#ff2d2d"/>
      <stop offset="1" stop-color="#ff5a5a"/>
    </linearGradient>
  </defs>
  <rect width="640" height="280" fill="none"/>
  <g transform="translate(40,36)">
    <path d="M120,52c48-48,134-48,182,0c12,12,12,32,0,44s-32,12-44,0c-24-24-70-24-94,0c-12,12-32,12-44,0s-12-32,0-44z" fill="url(#g)"/>
    <path d="M120,138c48,48,134,48,182,0c12-12,12-32,0-44s-32-12-44,0c-24,24-70,24-94,0c-12-12-32-12-44,0s-12,32,0,44z" fill="url(#g)"/>
  </g>
  <g transform="translate(360,124)">
    <text x="0" y="0" fill="#ffffff" font-family="Inter, ui-sans-serif, system-ui" font-size="44" font-weight="800">Somar.<tspan font-weight="800">IA</tspan></text>
    <text x="0" y="36" fill="#c9c9d1" font-family="Inter, ui-sans-serif, system-ui" font-size="16" font-weight="500">Automações inteligentes.</text>
  </g>
</svg>
